<svg width="156" height="36" viewBox="0 0 156 36" fill="none" xmlns="http://www.w3.org/2000/svg">
<path d="M30.7247 17.3156L21.928 8.54253C21.5854 8.20084 21.0299 8.20084 20.6873 8.54253L17.8512 11.371C17.8142 11.4079 17.7812 11.4473 17.7522 11.4886L17.24 11.9994L19.0124 13.7671L22.6254 17.3697C22.968 17.7114 22.968 18.2654 22.6254 18.6071L17.8603 23.3594C17.8519 23.3677 17.8438 23.3762 17.8358 23.3848L17.24 23.979L18.1705 24.9071L20.6964 27.4252C21.039 27.7669 21.5945 27.7669 21.9371 27.4252L30.5123 18.8731C30.5417 18.8437 30.5694 18.8133 30.5953 18.7818C30.6231 18.748 30.6514 18.7145 30.6824 18.6835L30.7247 18.6413C31.0918 18.2752 31.0918 17.6817 30.7247 17.3156Z" fill="#232323"/>
<path d="M1.27531 17.3282L10.072 8.55509C10.4146 8.2134 10.9701 8.2134 11.3127 8.55509L14.1488 11.3836C14.1858 11.4205 14.2188 11.4598 14.2478 11.5011L14.76 12.012L12.9876 13.7796L9.37457 17.3823C9.03197 17.724 9.03197 18.278 9.37457 18.6197L14.1397 23.372C14.1481 23.3803 14.1562 23.3888 14.1642 23.3974L14.76 23.9916L13.8295 24.9196L11.3036 27.4378C10.961 27.7795 10.4055 27.7795 10.0629 27.4378L1.3548 18.7531C1.31038 18.7088 1.27071 18.6616 1.23578 18.612C0.908741 18.2438 0.921918 17.6806 1.27531 17.3282Z" fill="#232323"/>
<path d="M16.6514 3.27457L19.4409 6.05662C19.808 6.42272 19.808 7.01627 19.4409 7.38236L16.6514 10.1644C16.2843 10.5305 15.6891 10.5305 15.322 10.1644L12.5325 7.38236C12.1654 7.01627 12.1654 6.42272 12.5325 6.05662L15.322 3.27457C15.6891 2.90848 16.2843 2.90848 16.6514 3.27457Z" fill="#232323"/>
<path d="M16.6514 25.8356L19.4409 28.6176C19.808 28.9837 19.808 29.5773 19.4409 29.9434L16.6514 32.7254C16.2843 33.0915 15.6891 33.0915 15.322 32.7254L12.5325 29.9434C12.1654 29.5773 12.1654 28.9837 12.5325 28.6176L15.322 25.8356C15.6891 25.4695 16.2843 25.4695 16.6514 25.8356Z" fill="#232323"/>
<path d="M15.9867 13.2192L20.7805 18.0002L15.9867 22.7811L11.1929 18.0002L15.9867 13.2192Z" fill="#0083FF"/>
<path d="M41 31.8386V3.8335H48.603V25.7125H59.9254V31.8386H41Z" fill="#232323"/>
<path d="M77.883 22.6495V10.8348H85.4312V31.8386H78.2659V27.8457H78.0471C77.5913 29.1858 76.7936 30.2342 75.654 30.9908C74.5145 31.7384 73.1608 32.1121 71.5928 32.1121C70.125 32.1121 68.8396 31.7748 67.7366 31.1002C66.6426 30.4256 65.7903 29.4958 65.1795 28.3107C64.5778 27.1255 64.2724 25.7672 64.2633 24.2357V10.8348H71.8115V22.6495C71.8207 23.6887 72.085 24.5046 72.6047 25.0972C73.1334 25.6897 73.8718 25.986 74.8199 25.986C75.4489 25.986 75.9913 25.8538 76.4472 25.5895C76.9121 25.316 77.2676 24.9331 77.5138 24.4408C77.769 23.9394 77.8921 23.3423 77.883 22.6495Z" fill="#232323"/>
<path d="M97.9738 20.024V31.8386H90.4255V10.8348H97.5909V14.8277H97.8097C98.2655 13.4967 99.0677 12.4529 100.216 11.6963C101.374 10.9396 102.723 10.5613 104.264 10.5613C105.75 10.5613 107.04 10.9032 108.134 11.5869C109.237 12.2615 110.089 13.1913 110.691 14.3765C111.302 15.5616 111.603 16.9153 111.593 18.4377V31.8386H104.045V20.024C104.054 18.9847 103.79 18.1688 103.252 17.5763C102.723 16.9837 101.985 16.6874 101.037 16.6874C100.417 16.6874 99.8745 16.8242 99.4096 17.0977C98.9538 17.362 98.6028 17.7449 98.3567 18.2463C98.1105 18.7386 97.9829 19.3311 97.9738 20.024Z" fill="#232323"/>
<path d="M122.328 32.1668C120.988 32.1668 119.802 31.948 118.772 31.5105C117.751 31.0638 116.949 30.3892 116.366 29.4867C115.782 28.5841 115.49 27.4355 115.49 26.0407C115.49 24.8921 115.686 23.9121 116.078 23.1007C116.47 22.2802 117.017 21.6102 117.719 21.0906C118.421 20.5709 119.237 20.1744 120.167 19.9009C121.106 19.6274 122.118 19.4496 123.203 19.3676C124.379 19.2764 125.322 19.167 126.033 19.0394C126.754 18.9027 127.273 18.7158 127.592 18.4788C127.911 18.2326 128.071 17.909 128.071 17.5079V17.4532C128.071 16.9062 127.861 16.4869 127.442 16.1951C127.022 15.9034 126.485 15.7576 125.828 15.7576C125.108 15.7576 124.52 15.9171 124.064 16.2362C123.618 16.5461 123.349 17.0247 123.257 17.672H116.311C116.402 16.3957 116.808 15.2197 117.528 14.144C118.257 13.0592 119.319 12.1931 120.714 11.5459C122.109 10.8895 123.85 10.5613 125.938 10.5613C127.442 10.5613 128.791 10.7391 129.985 11.0946C131.179 11.441 132.196 11.9287 133.035 12.5578C133.873 13.1777 134.511 13.907 134.949 14.7457C135.396 15.5752 135.619 16.4777 135.619 17.4532V31.8386H128.563V28.885H128.399C127.98 29.669 127.469 30.3026 126.868 30.7857C126.275 31.2689 125.596 31.6199 124.83 31.8386C124.073 32.0574 123.239 32.1668 122.328 32.1668ZM124.789 27.4081C125.363 27.4081 125.901 27.2896 126.403 27.0526C126.913 26.8156 127.328 26.4737 127.647 26.027C127.966 25.5803 128.126 25.0379 128.126 24.3998V22.6495C127.925 22.7315 127.711 22.809 127.483 22.8819C127.264 22.9549 127.027 23.0232 126.772 23.087C126.526 23.1509 126.261 23.2101 125.979 23.2648C125.705 23.3195 125.418 23.3696 125.117 23.4152C124.534 23.5064 124.055 23.6568 123.681 23.8665C123.317 24.067 123.043 24.3177 122.861 24.6186C122.688 24.9103 122.601 25.2385 122.601 25.6031C122.601 26.1866 122.806 26.6333 123.216 26.9432C123.627 27.2532 124.151 27.4081 124.789 27.4081Z" fill="#232323"/>
<path d="M140.381 31.8386V10.8348H147.71V14.8277H147.929C148.312 13.3509 148.918 12.2706 149.748 11.5869C150.587 10.9032 151.567 10.5613 152.688 10.5613C153.016 10.5613 153.34 10.5886 153.659 10.6433C153.987 10.6889 154.301 10.7573 154.602 10.8485V17.2891C154.229 17.1615 153.768 17.0657 153.221 17.0019C152.674 16.9381 152.205 16.9062 151.813 16.9062C151.074 16.9062 150.409 17.0749 149.816 17.4122C149.233 17.7404 148.772 18.2053 148.435 18.807C148.098 19.3995 147.929 20.0969 147.929 20.8991V31.8386H140.381Z" fill="#232323"/>
</svg>
